PathFileType	4	(X/Y/Z)	C:/Users/opensim2020/Desktop/walking_exp_matlab/subject02_walking08_straight_04.trc	
DataRate	CameraRate	NumFrames	NumMarkers	Units	OrigDataRate	OrigDataStartFrame	OrigNumFrames	
100.00	100.00	4	41	mm	100.00	3047	241	
Frame#	Time	LFHD			RFHD			LBHD			RBHD			C7			T10			CLAV			STRN			RBAK			LSHO			LUPA			LELB			LFRM			LWRA			LWRB			LFIN			RSHO			RUPA			RELB			RFRM			RWRA			RWRB			RFIN			LASI			RASI			LPSI			RPSI			LTHI			LKNE			LTIB			LANK			LHEE			LTOE			RTHI			RKNE			RTIB			RANK			RHEE			RTOE			*39			*40			
		X1	Y1	Z1	X2	Y2	Z2	X3	Y3	Z3	X4	Y4	Z4	X5	Y5	Z5	X6	Y6	Z6	X7	Y7	Z7	X8	Y8	Z8	X9	Y9	Z9	X10	Y10	Z10	X11	Y11	Z11	X12	Y12	Z12	X13	Y13	Z13	X14	Y14	Z14	X15	Y15	Z15	X16	Y16	Z16	X17	Y17	Z17	X18	Y18	Z18	X19	Y19	Z19	X20	Y20	Z20	X21	Y21	Z21	X22	Y22	Z22	X23	Y23	Z23	X24	Y24	Z24	X25	Y25	Z25	X26	Y26	Z26	X27	Y27	Z27	X28	Y28	Z28	X29	Y29	Z29	X30	Y30	Z30	X31	Y31	Z31	X32	Y32	Z32	X33	Y33	Z33	X34	Y34	Z34	X35	Y35	Z35	X36	Y36	Z36	X37	Y37	Z37	X38	Y38	Z38	X39	Y39	Z39	X40	Y40	Z40	X41	Y41	Z41	

61	0.600	1469.27649	434.74673	1740.56543	1327.50488	452.00952	1718.71729	1493.48486	569.48175	1678.21509	1354.37378	599.36499	1656.70984	1409.88159	641.78180	1539.67749	1389.18066	710.40558	1265.38708	1433.60156	508.88522	1460.26563	1417.85449	466.27124	1287.24841	1329.00574	701.30200	1371.55750	1593.57666	598.84161	1500.89429	1659.38306	668.51569	1309.07068	1658.10657	705.42590	1172.61792	1668.80688	734.61780	1044.08423	1644.33252	710.39252	906.70557	1669.36206	758.66650	922.32391	1669.85669	759.66901	854.11389	1233.48022	544.54932	1509.79980	1137.97888	542.55389	1320.59351	1120.06873	507.80685	1176.86243	1105.59607	456.50211	1067.92224	1131.06628	389.52979	952.50354	1091.82874	429.39584	941.57898	1093.86462	379.79108	888.25269	1530.78259	488.98370	999.17480	1274.41614	485.71970	979.13489	1446.65930	696.92181	1046.00549	1331.33533	697.59552	1045.05164	1604.46436	490.41211	700.28284	1580.99377	462.19308	507.47009	1574.10461	539.76501	332.28903	1549.81897	560.22540	109.16180	1491.44910	585.60431	84.76307	1588.89148	422.21661	50.13490	1230.38098	576.63214	672.22345	1282.12048	594.44849	464.38495	1283.99097	649.68420	283.62216	1333.32654	682.34222	94.84766	1390.97070	720.67401	43.62259	1317.65344	533.38947	38.69042	1388.14246	539.46570	1813.25305	-3360.26392	2845.15137	1034.05811 
62	0.610	1470.09070	425.91663	1739.32495	1328.71497	443.25015	1718.18884	1494.46790	561.06079	1677.44373	1355.01721	590.68921	1656.40930	1410.13330	633.46759	1539.18396	1389.51257	702.33777	1264.87158	1433.87903	500.59586	1459.56433	1417.64648	458.23190	1286.53992	1328.95520	693.12689	1371.22290	1593.72339	591.00262	1499.89722	1658.73157	662.14215	1308.63599	1657.32654	700.27716	1172.52905	1668.10840	730.65839	1044.34070	1645.56287	706.58838	906.34473	1669.13257	755.76740	922.92126	1670.31213	757.25146	854.72400	1234.05200	536.18573	1509.90417	1138.09680	533.06396	1320.71375	1119.82825	496.20724	1177.45581	1105.84204	443.53754	1069.21680	1131.65259	374.29037	955.19757	1092.40466	413.99603	943.27209	1094.65051	363.49841	890.94458	1530.88477	480.06281	998.69080	1273.98145	478.20670	978.52783	1447.27380	688.60901	1045.22095	1332.13452	689.90955	1044.32385	1604.32800	480.29596	700.17859	1580.19543	451.63715	506.46912	1575.33606	520.63837	327.17899	1552.35706	530.03186	102.95024	1494.74646	554.74066	77.53917	1590.18616	388.73468	50.43590	1230.75781	571.55286	671.85168	1282.59583	591.72760	464.14175	1284.18384	648.36029	283.81146	1333.58521	682.19598	95.18571	1391.24597	720.58923	43.86520	1317.50916	533.35846	38.57198	1389.20972	530.37299	1812.55103	-3360.34766	2845.27124	1034.16113 
63	0.620	1471.51843	417.31924	1738.20239	1329.63513	434.27081	1717.44031	1494.99890	552.39758	1676.34314	1355.75146	582.02747	1655.94275	1410.45496	625.10284	1538.48206	1389.90479	694.27075	1264.20789	1433.98083	492.19046	1458.60571	1417.59338	449.99896	1285.69360	1329.00818	684.99274	1370.66528	1593.97693	583.16809	1498.91492	1658.09460	655.34857	1307.84717	1656.60999	694.91742	1172.35754	1667.81360	726.46350	1044.55786	1647.13281	702.83447	906.45654	1668.79407	752.29211	923.06793	1670.88196	754.37976	855.19165	1234.47192	527.81763	1509.66333	1138.51794	523.63257	1320.66980	1119.27515	485.11368	1177.86755	1106.28418	430.23306	1070.51416	1132.23120	359.39108	957.68860	1093.19507	398.76740	944.86572	1095.45959	347.21332	893.40985	1531.07446	471.13635	998.07343	1273.73120	470.64572	977.93573	1447.94958	680.27344	1044.18030	1333.01318	682.15955	1043.46802	1604.17847	470.44873	699.71527	1579.53711	441.25433	505.31766	1576.40417	501.61176	322.44037	1555.00317	500.14932	97.78086	1497.42310	524.11713	70.79517	1591.60986	355.72446	51.85881	1231.02625	566.57489	671.37000	1282.82581	588.71600	463.89774	1284.46289	646.84082	283.97653	1333.74170	681.81238	95.38454	1391.46533	720.39185	44.14959	1317.40125	533.35101	38.62683	1390.57959	521.41815	1811.85449	-3357.09619	2845.80469	1034.16711 
64	0.630	1472.70850	408.54529	1736.85168	1330.73621	425.50427	1716.56531	1496.16980	543.98199	1675.29492	1356.48828	573.36780	1655.30798	1410.86401	616.69836	1537.64502	1390.25891	686.17657	1263.41882	1434.57520	483.97510	1457.73230	1417.66956	441.93408	1284.68140	1329.01514	676.43585	1369.87842	1594.01050	574.98767	1497.64758	1658.03845	648.83655	1307.34924	1656.10608	689.29315	1172.06836	1667.36963	721.94116	1044.54504	1648.66260	698.68750	906.20917	1668.88794	748.70032	923.50562	1671.61340	751.21887	855.57684	1235.07080	519.54712	1509.25867	1137.99097	513.14001	1320.63672	1119.55994	473.53049	1178.02075	1106.66406	417.54877	1071.41663	1133.03809	344.37674	959.81757	1094.14526	383.75034	946.30048	1096.66516	331.31683	896.00690	1531.35657	462.25769	997.36133	1273.75134	462.58594	977.54230	1448.70105	671.84937	1042.95862	1333.98889	674.36908	1042.49500	1604.03271	461.02374	698.77301	1579.09448	430.88931	503.97272	1577.18823	482.69769	318.04401	1557.67334	470.79419	93.47779	1500.55310	494.16870	65.52389	1593.34241	323.91907	54.21953	1231.41064	561.31775	670.94177	1283.08899	585.53601	463.41431	1284.67761	645.31055	284.13147	1333.94312	681.49286	95.66908	1391.72107	720.24609	44.42976	1317.26843	533.30396	38.58789	1392.00977	512.50317	1811.05457			 
